<?xml version="1.0" encoding="utf-8"?>
<!-- Generator: Adobe Illustrator 26.5.0, SVG Export Plug-In . SVG Version: 6.00 Build 0)  -->
<svg version="1.1" id="Layer_1" xmlns="http://www.w3.org/2000/svg" xmlns:xlink="http://www.w3.org/1999/xlink" x="0px" y="0px"
	 viewBox="0 0 512 512" style="enable-background:new 0 0 512 512;" xml:space="preserve">
<style type="text/css">
	.st0{fill:#18453B;}
</style>
<g id="XMLID_1_">
	<path id="XMLID_14_" class="st0" d="M449.62,35.18c0,0-26.52,57.11-40.13,85.45c-66.23-30.45-153.08-34.8-225.9,8.42
		c-48.69,29.75-87.83,82.5-91.9,139.33c-1.4,37.74,15.01,79.27,9.68,117.02c-1.4,20.2-6.03,40.55-15.43,58.09
		c-12.21,20.34-26.66,37.88-51.07,39.15c5.47-6.73,42.93-25.26,28.2-110.28c-5.89-33.67-52.19-117.3-7.44-222.11
		C96.47,54.54,273.4-58.83,449.62,35.18z"/>
	<path id="XMLID_15_" class="st0" d="M246.88,202.99c22.87-8.28,48.55-8.42,72.96-3.09c45.88,8.14,80.26,35.78,97.09,77.03
		c17.54,43.07,30.17,77.87,60.19,114.63l-46.86-8.42c11.65-85.31-69.03-88.81-91.2-56.96c16.7,18.38,45.46,27.92,67.77,24.27
		c-4.77,84.75,18.94,161.63,17.54,161.49c-19.22-2.67-107.34-54.44-133.01-77.03c-37.88,6.73-67.49,20.77-111.26,26.8
		c-1.4,0.14,8-32.27,6.73-48.55c0-44.62-34.09-86.43-9.96-141.15C191.32,239.47,213.21,215.19,246.88,202.99z"/>
	<path id="XMLID_16_" class="st0" d="M278.59,177.31c2.53,0,6.45,0.56,6.45,0.42c0.7-2.95,3.09-24.13,21.19-39.43
		c20.06-17.12,46.3-15.43,46.16-15.57c-26.24-8-53.32-8.56-71.98-7.02L278.59,177.31z"/>
	<path id="XMLID_17_" class="st0" d="M111.76,254.2c-3.93,25.4-4.21,48.97-2.1,61.45c0,0.14,3.79-21.47,16.14-33.67
		c10.8-10.66,24.41-12.77,29.32-12.49l2.1-8.28L111.76,254.2z"/>
	<path id="XMLID_18_" class="st0" d="M162.56,249.43c1.26-3.37,2.95-6.31,4.91-10.24l-46.58-18.1c-2.95,5.75-5.05,14.45-6.17,19.22
		L162.56,249.43z"/>
	<path id="XMLID_19_" class="st0" d="M173.78,231.75l7.58-9.4l-42.65-32.13c-4.49,5.61-8.14,11.79-10.94,18.38L173.78,231.75z"/>
	<path id="XMLID_20_" class="st0" d="M189.63,214.21l9.54-8.7l-37.04-42.09c-8.28,7.3-10.94,10.52-16,16.7L189.63,214.21z"/>
	<path id="XMLID_21_" class="st0" d="M208.86,199.62l10.8-6.31l-27.5-50.09c-10.52,5.05-17.26,10.52-20.34,12.63L208.86,199.62z"/>
	<path id="XMLID_22_" class="st0" d="M229.34,188.53c13.19-4.49,13.05-4.63,13.05-4.35l-15.57-56.26c-8.7,2.53-20.48,7.58-23.15,9.4
		L229.34,188.53z"/>
	<path id="XMLID_23_" class="st0" d="M252.49,180.96l11.93-2.53l1.4-60.89c-0.42,0.42-14.17,2.53-25.68,5.75L252.49,180.96z"/>
</g>
</svg>
